<?xml version="1.0" standalone="no"?>
<!DOCTYPE svg PUBLIC "-//W3C//DTD SVG 20010904//EN"
 "http://www.w3.org/TR/2001/REC-SVG-20010904/DTD/svg10.dtd">
<svg version="1.0" xmlns="http://www.w3.org/2000/svg"
 width="700.000000pt" height="700.000000pt" viewBox="0 0 700.000000 700.000000"
 preserveAspectRatio="xMidYMid meet">
<metadata>
Created by potrace 1.14, written by Peter Selinger 2001-2017
</metadata>
<g transform="translate(0.000000,700.000000) scale(0.100000,-0.100000)"
fill="#000000" stroke="none">
<path d="M990 3500 l0 -360 40 0 c37 0 40 2 51 40 7 22 14 40 15 40 2 0 21
-19 43 -42 l40 -43 74 0 c68 0 80 3 118 30 61 43 101 119 107 204 12 167 -82
290 -221 291 -54 0 -79 -10 -119 -48 l-28 -26 0 137 0 137 -60 0 -60 0 0 -360z
m314 20 c98 -86 47 -280 -73 -280 -73 0 -121 64 -121 161 0 92 46 148 122 149
27 0 46 -8 72 -30z"/>
<path d="M2880 3500 l0 -360 60 0 60 0 0 360 0 360 -60 0 -60 0 0 -360z"/>
<path d="M3520 3728 l0 -131 -22 21 c-48 44 -141 56 -204 26 -46 -22 -108 -94
-122 -142 -19 -64 -15 -180 9 -232 40 -89 113 -140 199 -140 58 0 99 18 129
56 21 27 26 24 33 -21 3 -17 12 -21 56 -23 l52 -3 0 360 0 361 -65 0 -65 0 0
-132z m-28 -217 c25 -28 28 -38 28 -107 0 -86 -16 -126 -60 -149 -115 -60
-219 77 -163 216 22 56 64 82 123 76 34 -4 51 -12 72 -36z"/>
<path d="M4810 3480 l0 -340 133 0 c231 0 325 43 400 184 19 35 22 57 22 156
0 99 -3 121 -22 156 -75 141 -169 184 -400 184 l-133 0 0 -340z m287 215 c113
-34 170 -163 132 -300 -15 -52 -82 -119 -134 -134 -22 -6 -68 -11 -102 -11
l-63 0 0 230 0 230 58 0 c32 0 81 -7 109 -15z"/>
<path d="M5530 3480 l0 -342 183 4 c171 3 185 5 231 28 28 14 58 37 69 51 27
38 39 103 27 149 -11 40 -61 93 -101 105 -22 7 -21 9 14 27 53 27 77 70 77
139 0 69 -27 113 -90 149 -43 24 -55 25 -227 28 l-183 4 0 -342z m351 201 c32
-33 36 -58 14 -100 -19 -38 -60 -51 -161 -51 l-84 0 0 90 0 90 101 0 c98 0
101 -1 130 -29z m4 -286 c31 -30 33 -83 6 -116 -18 -22 -28 -24 -130 -27
l-111 -4 0 86 0 86 105 0 c99 0 107 -2 130 -25z"/>
<path d="M1737 3646 c-100 -37 -150 -122 -151 -253 0 -71 4 -89 30 -139 41
-80 99 -117 196 -122 168 -10 261 84 262 264 1 70 -3 88 -29 139 -42 83 -101
119 -199 122 -43 2 -86 -2 -109 -11z m167 -115 c32 -28 46 -68 46 -133 0 -81
-22 -127 -74 -152 -36 -17 -43 -18 -79 -5 -59 21 -81 56 -85 138 -6 98 24 152
98 174 24 7 73 -4 94 -22z"/>
<path d="M3934 3641 c-50 -23 -107 -88 -123 -142 -7 -22 -12 -72 -12 -110 0
-156 95 -259 239 -259 93 0 184 61 207 138 6 21 4 22 -59 22 -37 0 -66 -4 -66
-10 0 -27 -41 -50 -88 -50 -40 0 -53 5 -76 29 -17 18 -30 44 -33 70 l-6 41
168 0 168 0 -5 68 c-10 141 -91 222 -220 222 -30 0 -71 -9 -94 -19z m170 -112
c15 -18 26 -43 26 -60 l0 -29 -105 0 c-115 0 -120 3 -90 60 21 41 53 60 101
60 35 0 47 -5 68 -31z"/>
<path d="M4630 3654 c-41 -14 -65 -32 -86 -64 l-24 -35 0 48 0 47 -60 0 -60 0
0 -255 0 -255 60 0 60 0 0 133 c0 149 9 193 46 231 22 22 36 26 81 26 l54 0
-3 63 c-3 58 -5 62 -28 64 -14 1 -32 0 -40 -3z"/>
<path d="M2212 3458 c3 -168 6 -198 23 -233 52 -103 205 -127 287 -45 l38 38
0 -39 0 -39 65 0 65 0 0 255 0 255 -65 0 -65 0 0 -150 c0 -131 -3 -156 -20
-190 -36 -70 -127 -94 -175 -45 -25 24 -25 26 -25 205 l0 180 -66 0 -66 0 4
-192z"/>
</g>
</svg>
